<svg xmlns="http://www.w3.org/2000/svg" width="22" height="22" viewBox="0 0 22 22">
  <path id="bracnh" d="M20.369,17.543V14.411H11.645v-1.75h5.837a3.584,3.584,0,0,0,.6-7.118,4.086,4.086,0,0,0-5.349-3.122A5.126,5.126,0,0,0,3.288,5.709a3.585,3.585,0,0,0,1.23,6.952h5.837v1.75H1.631v3.132a2.275,2.275,0,1,0,1.289,0V15.7h7.436v1.843a2.275,2.275,0,1,0,1.289,0V15.7H19.08v1.843a2.275,2.275,0,1,0,1.289,0ZM2.223,9.077A2.287,2.287,0,0,1,4.132,6.815L4.813,6.7l-.162-.671a3.837,3.837,0,0,1,7.213-2.511l.286.619.6-.321a2.761,2.761,0,0,1,1.313-.327,2.789,2.789,0,0,1,2.793,2.677l.026.613.613,0a2.3,2.3,0,0,1-.017,4.59H4.518A2.3,2.3,0,0,1,2.223,9.077ZM3.261,19.725a.986.986,0,1,1-.986-.986A.987.987,0,0,1,3.261,19.725Zm8.725,0A.986.986,0,1,1,11,18.739.987.987,0,0,1,11.986,19.725Zm7.738.986a.986.986,0,1,1,.986-.986A.987.987,0,0,1,19.725,20.711Zm0,0" opacity="0.7"/>
</svg>
