<svg xmlns="http://www.w3.org/2000/svg" width="21.998" height="21.996" viewBox="0 0 21.998 21.996">
  <path id="commit" d="M18.729,6.584a4.427,4.427,0,0,0-5.851-3.41A5.57,5.57,0,0,0,2.594,6.753a3.876,3.876,0,0,0,1.282,7.534H8.134v1.291H5L11,22.5l6-6.917H13.864V14.287h4.258a3.875,3.875,0,0,0,.607-7.7ZM14.176,16.867,11,20.529,7.822,16.867h1.6V9.952h3.153v6.916ZM18.123,13H13.864V8.663H8.134V13H3.875a2.586,2.586,0,0,1-.435-5.136l.681-.115L3.96,7.076a4.281,4.281,0,0,1,8.047-2.8l.286.619.6-.321a3.1,3.1,0,0,1,1.473-.367,3.128,3.128,0,0,1,3.134,3l.026.613.613,0A2.586,2.586,0,0,1,18.123,13Zm0,0" transform="translate(0 -0.5)" opacity="0.7"/>
</svg>
