<svg xmlns="http://www.w3.org/2000/svg" width="19.946" height="19.946" viewBox="0 0 19.946 19.946">
  <path id="contributor" d="M9.973,0a9.973,9.973,0,1,0,9.973,9.973A9.984,9.984,0,0,0,9.973,0ZM9.389,4.9a13.635,13.635,0,0,1-2.609-.366c.134-.318.28-.623.437-.913A5.046,5.046,0,0,1,9.389,1.294Zm0,1.17V9.389H5.739a14.686,14.686,0,0,1,.638-3.757A14.8,14.8,0,0,0,9.389,6.065Zm0,4.493v3.324a14.8,14.8,0,0,0-3.012.433,14.686,14.686,0,0,1-.638-3.757Zm0,4.493v3.6A5.046,5.046,0,0,1,7.216,16.33c-.157-.289-.3-.595-.437-.913A13.633,13.633,0,0,1,9.389,15.051Zm1.169,0a13.635,13.635,0,0,1,2.609.366c-.134.318-.28.623-.437.913a5.046,5.046,0,0,1-2.172,2.322Zm0-1.17V10.557h3.65a14.686,14.686,0,0,1-.638,3.757A14.8,14.8,0,0,0,10.557,13.881Zm0-4.493V6.065a14.8,14.8,0,0,0,3.012-.433,14.686,14.686,0,0,1,.638,3.757Zm0-4.493v-3.6A5.046,5.046,0,0,1,12.73,3.616c.157.289.3.595.437.913A13.635,13.635,0,0,1,10.557,4.9Zm3.2-1.837a8.872,8.872,0,0,0-.946-1.42,8.815,8.815,0,0,1,3.117,1.856A11.043,11.043,0,0,1,14.3,4.2,11.84,11.84,0,0,0,13.757,3.059Zm-7.568,0A11.84,11.84,0,0,0,5.648,4.2a11.059,11.059,0,0,1-1.63-.705A8.815,8.815,0,0,1,7.135,1.638,8.875,8.875,0,0,0,6.189,3.059ZM5.253,5.3a15.65,15.65,0,0,0-.684,4.09H1.189a8.763,8.763,0,0,1,2-5.019A12.02,12.02,0,0,0,5.253,5.3Zm-.684,5.259a15.648,15.648,0,0,0,.684,4.09,12.02,12.02,0,0,0-2.066.929,8.763,8.763,0,0,1-2-5.019Zm1.079,5.189a11.84,11.84,0,0,0,.541,1.141,8.882,8.882,0,0,0,.946,1.42,8.813,8.813,0,0,1-3.117-1.856A11.043,11.043,0,0,1,5.648,15.746Zm8.109,1.141a11.84,11.84,0,0,0,.541-1.141,11.059,11.059,0,0,1,1.63.705,8.815,8.815,0,0,1-3.117,1.856A8.876,8.876,0,0,0,13.757,16.887Zm.936-2.24a15.65,15.65,0,0,0,.684-4.09h3.38a8.763,8.763,0,0,1-2,5.019A12.02,12.02,0,0,0,14.693,14.648Zm.684-5.259a15.649,15.649,0,0,0-.684-4.09,12.02,12.02,0,0,0,2.066-.929,8.763,8.763,0,0,1,2,5.019Zm0,0" opacity="0.7"/>
</svg>
