<svg xmlns="http://www.w3.org/2000/svg" width="22.306" height="19.956" viewBox="0 0 22.306 19.956">
  <path id="ic-heart" d="M10.653,18.956a1.249,1.249,0,0,1-.824-.31c-.861-.753-1.691-1.46-2.423-2.084l0,0a45.059,45.059,0,0,1-5.29-4.965A7.93,7.93,0,0,1,0,6.4,6.659,6.659,0,0,1,1.69,1.855,5.729,5.729,0,0,1,5.952,0,5.359,5.359,0,0,1,9.3,1.156a6.849,6.849,0,0,1,1.353,1.413,6.85,6.85,0,0,1,1.354-1.413A5.359,5.359,0,0,1,15.354,0a5.73,5.73,0,0,1,4.262,1.855A6.659,6.659,0,0,1,21.306,6.4a7.929,7.929,0,0,1-2.113,5.191A45.049,45.049,0,0,1,13.9,16.559c-.733.625-1.565,1.333-2.427,2.088A1.25,1.25,0,0,1,10.653,18.956ZM5.952,1.248A4.5,4.5,0,0,0,2.608,2.7a5.417,5.417,0,0,0-1.36,3.7A6.673,6.673,0,0,0,3.074,10.8a44.34,44.34,0,0,0,5.138,4.812l0,0c.735.626,1.568,1.336,2.435,2.094.872-.76,1.707-1.471,2.443-2.1A44.348,44.348,0,0,0,18.232,10.8,6.673,6.673,0,0,0,20.058,6.4,5.417,5.417,0,0,0,18.7,2.7a4.5,4.5,0,0,0-3.344-1.453,4.139,4.139,0,0,0-2.584.895,6.056,6.056,0,0,0-1.44,1.666.788.788,0,0,1-1.353,0,6.051,6.051,0,0,0-1.44-1.666A4.139,4.139,0,0,0,5.952,1.248Zm0,0" transform="translate(0.5 0.5)" fill="#ed3a3a" stroke="#ef3839" stroke-width="1"/>
</svg>
