<svg xmlns="http://www.w3.org/2000/svg" width="16.535" height="15.878" viewBox="0 0 16.535 15.878">
  <path id="ic-star" d="M15.171,7.781a1.112,1.112,0,0,0-.617-1.9L10.8,5.338a.49.49,0,0,1-.37-.269l-1.679-3.4a1.112,1.112,0,0,0-1.995,0l-1.679,3.4a.491.491,0,0,1-.37.269L.953,5.884a1.112,1.112,0,0,0-.616,1.9l2.717,2.648a.492.492,0,0,1,.142.435L2.554,14.6a1.112,1.112,0,0,0,1.614,1.172L7.526,14.01a.492.492,0,0,1,.457,0l3.358,1.766A1.112,1.112,0,0,0,12.955,14.6l-.642-3.739a.491.491,0,0,1,.142-.435ZM11.7,10.969l.641,3.739a.491.491,0,0,1-.712.518L8.272,13.46a1.112,1.112,0,0,0-1.035,0L3.879,15.226a.491.491,0,0,1-.713-.518l.641-3.739a1.112,1.112,0,0,0-.32-.984L.77,7.336A.491.491,0,0,1,1.042,6.5L4.8,5.952a1.111,1.111,0,0,0,.838-.608l1.679-3.4a.491.491,0,0,1,.881,0l1.679,3.4a1.11,1.11,0,0,0,.837.608l3.755.546a.491.491,0,0,1,.272.838L12.021,9.984A1.112,1.112,0,0,0,11.7,10.969Z" transform="translate(0.513 -0.547)" fill="#eba643" stroke="#eba743" stroke-width="1"/>
</svg>
