<svg xmlns="http://www.w3.org/2000/svg" width="35.528" height="35.528" viewBox="0 0 35.528 35.528">
  <g id="dashboard" transform="translate(1 1)">
    <path id="Tracé_1" data-name="Tracé 1" d="M12.922,0H2.445A2.447,2.447,0,0,0,0,2.445V8.731a2.447,2.447,0,0,0,2.445,2.445H12.922a2.447,2.447,0,0,0,2.445-2.445V2.445A2.447,2.447,0,0,0,12.922,0Zm0,0" fill="none" stroke="#3b3a3a" stroke-width="2"/>
    <path id="Tracé_2" data-name="Tracé 2" d="M12.922,213.332H2.445A2.447,2.447,0,0,0,0,215.777v14.669a2.447,2.447,0,0,0,2.445,2.445H12.922a2.447,2.447,0,0,0,2.445-2.445V215.777A2.447,2.447,0,0,0,12.922,213.332Zm0,0" transform="translate(0 -199.362)" fill="none" stroke="#3b3a3a" stroke-width="2"/>
    <path id="Tracé_3" data-name="Tracé 3" d="M290.255,341.332H279.777a2.447,2.447,0,0,0-2.445,2.445v6.287a2.447,2.447,0,0,0,2.445,2.445h10.478a2.447,2.447,0,0,0,2.445-2.445v-6.287A2.447,2.447,0,0,0,290.255,341.332Zm0,0" transform="translate(-259.171 -318.98)" fill="none" stroke="#3b3a3a" stroke-width="2"/>
    <path id="Tracé_4" data-name="Tracé 4" d="M290.255,0H279.777a2.447,2.447,0,0,0-2.445,2.445V17.113a2.447,2.447,0,0,0,2.445,2.445h10.478a2.447,2.447,0,0,0,2.445-2.445V2.445A2.447,2.447,0,0,0,290.255,0Zm0,0" transform="translate(-259.171)" fill="none" stroke="#3b3a3a" stroke-width="2"/>
  </g>
</svg>
