<svg xmlns="http://www.w3.org/2000/svg" width="72" height="72" viewBox="0 0 72 72">
  <g id="Groupe_11" data-name="Groupe 11" transform="translate(-581 -284)">
    <circle id="Ellipse_13" data-name="Ellipse 13" cx="36" cy="36" r="36" transform="translate(581 284)" fill="#fff2dc" opacity="0.428"/>
    <path id="Tracé_20" data-name="Tracé 20" d="M44.638,65.071a3.927,3.927,0,0,0-2.614-3.7V47.853l2.7-1.079-22.39-8.949L0,46.774,10.571,51.01V57.23c0,1.917,1.344,3.645,3.785,4.866a18.245,18.245,0,0,0,7.977,1.669A18.245,18.245,0,0,0,30.31,62.1c2.441-1.22,3.785-2.948,3.785-4.866V51.022L39.41,48.9V61.375a3.92,3.92,0,0,0-.379,7.235l-2.168,6.5,2.48.827,1.374-4.122,1.374,4.122,2.48-.827L42.4,68.61A3.926,3.926,0,0,0,44.638,65.071ZM31.481,57.23c0,1.851-3.912,3.921-9.148,3.921s-9.148-2.07-9.148-3.921V52.058l9.148,3.666,9.149-3.657V57.23Zm-9.148-4.321L7.027,46.774,22.334,40.64,37.68,46.774Zm18.383,13.47a1.307,1.307,0,1,1,1.307-1.307A1.308,1.308,0,0,1,40.717,66.378Z" transform="translate(594.279 265.412)" fill="#eba543"/>
  </g>
</svg>
