<svg xmlns="http://www.w3.org/2000/svg" width="55" height="55" viewBox="0 0 55 55">
  <g id="Groupe_13" data-name="Groupe 13" transform="translate(-162 -720)">
    <g id="Groupe_12" data-name="Groupe 12" transform="translate(-419.5 435.5)">
      <g id="Groupe_11" data-name="Groupe 11" transform="translate(581 284)">
        <circle id="Ellipse_13" data-name="Ellipse 13" cx="27.5" cy="27.5" r="27.5" transform="translate(0.5 0.5)" fill="#ffcedd" opacity="0.428"/>
      </g>
    </g>
    <path id="bell" d="M75.131,22.281a4.35,4.35,0,0,1-1.322-1.8c-1.139-2.411-1.378-5.806-1.378-8.23,0-.011,0-.021,0-.031a7.944,7.944,0,0,0-4.676-7.2v-1.9A3.12,3.12,0,0,0,64.64,0h-.258a3.12,3.12,0,0,0-3.114,3.119v1.9a7.944,7.944,0,0,0-4.677,7.236c0,2.424-.239,5.82-1.378,8.23a4.35,4.35,0,0,1-1.322,1.8.8.8,0,0,0-.438.907.834.834,0,0,0,.823.641h6.012a4.223,4.223,0,0,0,8.446,0h6.012a.835.835,0,0,0,.823-.641A.8.8,0,0,0,75.131,22.281ZM62.909,3.119a1.476,1.476,0,0,1,1.473-1.476h.258a1.476,1.476,0,0,1,1.473,1.476V4.481a7.944,7.944,0,0,0-3.2,0V3.119Zm1.6,23.236a2.588,2.588,0,0,1-2.582-2.526h5.165A2.588,2.588,0,0,1,64.511,26.355Zm3.3-4.169H56.145a8.6,8.6,0,0,0,.43-.755c1.1-2.168,1.657-5.257,1.657-9.181a6.279,6.279,0,1,1,12.558,0c0,.01,0,.02,0,.03,0,3.908.561,6.986,1.657,9.148a8.6,8.6,0,0,0,.43.755Z" transform="translate(125.26 733.436)" fill="#fe749e"/>
  </g>
</svg>
