<svg id="clock-circular-outline" xmlns="http://www.w3.org/2000/svg" width="23.783" height="23.783" viewBox="0 0 23.783 23.783">
  <g id="Groupe_4" data-name="Groupe 4">
    <path id="Tracé_16" data-name="Tracé 16" d="M11.891,0A11.891,11.891,0,1,0,23.783,11.891,11.9,11.9,0,0,0,11.891,0Zm0,21.253a9.361,9.361,0,1,1,9.361-9.361A9.372,9.372,0,0,1,11.891,21.253Z" fill="#9ca0a3"/>
    <path id="Tracé_17" data-name="Tracé 17" d="M51.368,24.235H46.024V17.809a.979.979,0,0,0-1.958,0v7.4a.979.979,0,0,0,.979.979h6.323a.979.979,0,1,0,0-1.958Z" transform="translate(-33.28 -12.71)" fill="#9ca0a3"/>
  </g>
</svg>
