<svg xmlns="http://www.w3.org/2000/svg" width="22.307" height="26.631" viewBox="0 0 22.307 26.631">
  <g id="notification" transform="translate(-42.657)">
    <g id="Groupe_15" data-name="Groupe 15" transform="translate(42.657 4.848)">
      <g id="Groupe_14" data-name="Groupe 14">
        <path id="Tracé_31" data-name="Tracé 31" d="M64.885,92.091l-1.916-2.978a8.411,8.411,0,0,1-1.351-4.552V81.952a7.826,7.826,0,0,0-15.615,0v2.609a8.411,8.411,0,0,1-1.351,4.552l-1.916,2.978a.49.49,0,0,0-.008.523.568.568,0,0,0,.486.264H64.407a.568.568,0,0,0,.486-.264A.49.49,0,0,0,64.885,92.091ZM44.2,91.838l1.409-2.191a9.391,9.391,0,0,0,1.51-5.087V81.952a6.708,6.708,0,0,1,13.384,0v2.609a9.4,9.4,0,0,0,1.509,5.087l1.41,2.191Z" transform="translate(-42.657 -74.667)" fill="#9ca0a3"/>
      </g>
    </g>
    <g id="Groupe_17" data-name="Groupe 17" transform="translate(51.43)">
      <g id="Groupe_16" data-name="Groupe 16">
        <path id="Tracé_32" data-name="Tracé 32" d="M215.714,0a2.383,2.383,0,0,0-2.381,2.381V4.761a.6.6,0,0,0,1.19,0V2.381a1.19,1.19,0,1,1,2.381,0V4.761a.6.6,0,0,0,1.19,0V2.381A2.383,2.383,0,0,0,215.714,0Z" transform="translate(-213.333)" fill="#9ca0a3"/>
      </g>
    </g>
    <g id="Groupe_19" data-name="Groupe 19" transform="translate(50.835 21.871)">
      <g id="Groupe_18" data-name="Groupe 18">
        <path id="Tracé_33" data-name="Tracé 33" d="M208.218,426.973a.6.6,0,1,0-1.028.6,1.786,1.786,0,1,1-3.093,0,.6.6,0,1,0-1.028-.6,2.977,2.977,0,1,0,5.149,0Z" transform="translate(-202.666 -426.68)" fill="#9ca0a3"/>
      </g>
    </g>
  </g>
</svg>
